HIERARCHY
ROOT Hips
{
	OFFSET 0.00000 0.00000 0.00000
	CHANNELS 6 Xposition Yposition Zposition Zrotation Yrotation Xrotation 
	JOINT LHipJoint
	{
		OFFSET 0 0 0
		CHANNELS 3 Zrotation Yrotation Xrotation
		JOINT LeftHip
		{
			OFFSET 1.84395 -1.68683 0.74144
			CHANNELS 3 Zrotation Yrotation Xrotation
			JOINT LeftKnee
			{
				OFFSET 2.27037 -6.23779 0.00000
				CHANNELS 3 Zrotation Yrotation Xrotation
				JOINT LeftAnkle
				{
					OFFSET 2.56918 -7.05877 0.00000
					CHANNELS 3 Zrotation Yrotation Xrotation
					JOINT LeftToe
					{
						OFFSET 0.22276 -0.61202 1.71784
						CHANNELS 3 Zrotation Yrotation Xrotation
						End Site
						{
							OFFSET 0.00000 -0.00000 0.91613
						}
					}
				}
			}
		}
	}
	JOINT RHipJoint
	{
		OFFSET 0 0 0
		CHANNELS 3 Zrotation Yrotation Xrotation
		JOINT RightHip
		{
			OFFSET -1.76833 -1.68684 0.74144
			CHANNELS 3 Zrotation Yrotation Xrotation
			JOINT RightKnee
			{
				OFFSET -2.49360 -6.85110 0.00000
				CHANNELS 3 Zrotation Yrotation Xrotation
				JOINT RightAnkle
				{
					OFFSET -2.55538 -7.02085 0.00000
					CHANNELS 3 Zrotation Yrotation Xrotation
					JOINT RightToe
					{
						OFFSET -0.21516 -0.59115 1.68050
						CHANNELS 3 Zrotation Yrotation Xrotation
						End Site
						{
							OFFSET -0.00000 -0.00000 0.89604
						}
					}
				}
			}
		}
	}
	JOINT lowerback
	{
		OFFSET 0 0 0
		CHANNELS 3 Zrotation Yrotation Xrotation
		JOINT Chest
		{
			OFFSET 0.06382 1.72312 -0.19613
			CHANNELS 3 Zrotation Yrotation Xrotation
			JOINT Chest2
			{
				OFFSET -0.00055 1.73507 0.23859
				CHANNELS 3 Zrotation Yrotation Xrotation
				JOINT lowerneck
				{
					OFFSET 0 0 0
					CHANNELS 3 Zrotation Yrotation Xrotation
					JOINT Neck
					{
						OFFSET 0.03638 1.65562 0.09633
						CHANNELS 3 Zrotation Yrotation Xrotation
						JOINT Head
						{
							OFFSET 0.06388 1.62807 -0.32386
							CHANNELS 3 Zrotation Yrotation Xrotation
							End Site
							{
								OFFSET 0.00995 1.67644 -0.12021
							}
						}
					}
				}
				JOINT LeftCollar
				{
					OFFSET 0 0 0
					CHANNELS 3 Zrotation Yrotation Xrotation
					JOINT LeftShoulder
					{
						OFFSET 3.09648 1.42991 0.28122
CHANNELS 3 Zrotation Xrotation Yrotation
						JOINT LeftElbow
						{
OFFSET 0 -5.118780 -0.000000
CHANNELS 3 Zrotation Xrotation Yrotation
							JOINT LeftWrist
							{
OFFSET 0 -3.599710 0.000000
CHANNELS 3 Zrotation Xrotation Yrotation
								JOINT lhand
								{
									OFFSET 0 0 0
CHANNELS 3 Zrotation Xrotation Yrotation
									JOINT LFingers
									{
OFFSET 0 -0.628770 0.000000
CHANNELS 3 Zrotation Xrotation Yrotation
										End Site
										{
OFFSET 0 -0.506930 0.000000
										}
									}
								}
								JOINT LThumb
								{
OFFSET 0 0.000000 0.000000
CHANNELS 3 Zrotation Xrotation Yrotation
									End Site
									{
OFFSET 0 -0.514670 0.514670
									}
								}
							}
						}
					}
				}
				JOINT RightCollar
				{
					OFFSET 0 0 0
					CHANNELS 3 Zrotation Yrotation Xrotation
					JOINT RightShoulder
					{
						OFFSET -3.33565 1.14597 0.05047
CHANNELS 3 Zrotation Xrotation Yrotation
						JOINT RightElbow
						{
OFFSET 0 -5.490200 0.000000
CHANNELS 3 Zrotation Xrotation Yrotation
							JOINT RightWrist
							{
OFFSET 0 -3.206590 -0.000000
CHANNELS 3 Zrotation Xrotation Yrotation
								JOINT rhand
								{
									OFFSET 0 0 0
CHANNELS 3 Zrotation Xrotation Yrotation
									JOINT RFingers
									{
OFFSET 0 -0.691880 0.000000
CHANNELS 3 Zrotation Xrotation Yrotation
										End Site
										{
OFFSET 0 -0.557810 0.000000
										}
									}
								}
								JOINT RThumb
								{
OFFSET 0 0.000000 0.000000
CHANNELS 3 Zrotation Xrotation Yrotation
									End Site
									{
OFFSET 0 -0.566330 0.566330
									}
								}
							}
						}
					}
				}
			}
		}
	}
}
MOTION
Frames: 8
Frame Time: 0.008333333333333333
0.615500 17.428500 9.454300 -9.259800 -1.183800 9.764800 0.000000 0.000000 0.000000 -20.653300 -41.741800 26.701200 0.071200 -1.721700 -4.737200 -5.044800 43.469900 -45.323400 0.509800 4.576900 12.705700 0.000000 0.000000 0.000000 28.395700 24.827800 5.760900 -0.007200 -0.548000 1.505800 0.953000 -20.309800 -19.594400 -0.001200 -0.227700 0.625700 6.463500 0.724900 -0.553200 1.998500 1.515100 -10.680500 -1.581600 0.253100 -11.036600 -10.981100 -12.442800 -0.550200 10.959400 -18.001200 13.371600 3.927500 -8.820700 6.129500 -0.000000 0.000000 0.000000 -2.353900 13.594100 -2.371000 8.432500 -14.251400 1.056000 18.615200 31.169600 13.230100 0.000000 0.000000 0.000000 -7.125000 0.000000 0.000000 -6.003600 16.097500 -4.126600 -0.000000 0.000000 0.000000 1.583500 12.917600 2.886600 -10.212300 -17.071000 -1.536700 8.928000 43.669700 30.599400 0.000000 0.000000 0.000000 7.125000 0.000000 -0.000000 42.430900 55.280100 -12.321600
0.614666 17.429000 9.451932 -9.272894 -1.204069 9.773114 0.000000 0.000000 0.000000 -20.611912 -41.728880 26.663944 0.071133 -1.720468 -4.733736 -5.032700 43.459135 -45.344352 0.509512 4.575251 12.701044 0.000000 0.000000 0.000000 28.407802 24.838124 5.747767 -0.007133 -0.543769 1.494307 0.964404 -20.345335 -19.522962 -0.007708 -0.511990 1.406964 6.450052 0.732934 -0.495932 1.997741 1.532503 -10.717542 -1.577036 0.260000 -11.113078 -10.870411 -12.453628 -0.590956 10.771854 -17.989182 13.387485 3.853168 -8.817958 6.112362 0.000000 0.000000 0.000000 -2.323392 13.667514 -2.636951 8.468612 -14.309619 1.064936 18.525991 30.803135 13.223114 0.000000 0.000000 0.000000 -7.125000 0.000000 0.000000 -6.064927 16.112627 -4.167173 0.000000 0.000000 0.000000 1.578495 12.912993 2.479028 -10.204454 -17.058781 -1.534396 9.279580 43.962074 30.456831 0.000000 0.000000 0.000000 7.125000 0.000000 0.000000 42.614910 55.101529 -12.191899
0.604424 17.438577 9.464987 -8.901525 -1.278389 10.271379 0.000000 0.000000 0.000000 -20.815107 -42.346186 26.322594 0.069033 -1.695265 -4.664163 -5.130371 43.804123 -45.778948 0.520313 4.622645 12.835451 0.000000 0.000000 0.000000 27.784109 25.319481 5.322021 -0.006766 -0.529611 1.455238 0.988418 -20.527789 -19.625040 -0.036070 -1.225621 3.369750 5.890013 0.876028 -1.305994 1.794206 1.613643 -10.789311 -1.480108 0.351058 -10.694080 -10.432408 -12.534583 -0.615138 10.573174 -18.080324 13.326428 3.722325 -8.852634 6.048477 0.000000 0.000000 0.000000 -1.850617 13.902199 -5.688298 8.742561 -14.749032 1.133825 18.345298 28.957485 11.425105 0.000000 0.000000 0.000000 -7.125000 0.000000 0.000000 -6.162820 18.001268 -3.979151 0.000000 0.000000 0.000000 1.539567 12.586203 2.725010 -9.797896 -16.422470 -1.417537 8.781041 43.750274 30.340977 0.000000 0.000000 0.000000 7.125000 0.000000 0.000000 42.068085 55.111002 -11.999636
0.595899 17.447100 9.477301 -8.583910 -1.265559 10.748041 0.000000 0.000000 0.000000 -20.804895 -42.731804 25.758388 0.066499 -1.663691 -4.577076 -5.257819 44.017209 -45.802383 0.491403 4.494714 12.472741 0.000000 0.000000 0.000000 27.216966 25.542134 4.860777 -0.006200 -0.507592 1.394678 1.009582 -20.641428 -19.607373 -0.031607 -1.147019 3.153529 5.479396 0.978718 -2.046612 1.599965 1.663808 -10.874681 -1.451979 0.410914 -10.338610 -10.106818 -12.639066 -0.681968 10.443407 -18.214086 13.325791 3.619273 -8.906983 6.031869 0.000000 0.000000 0.000000 -1.473570 13.989336 -7.542402 8.902509 -15.004815 1.174703 18.179619 27.820839 10.319268 0.000000 0.000000 0.000000 -7.125000 0.000000 0.000000 -6.271186 19.165837 -3.887972 0.000000 0.000000 0.000000 1.583634 12.389691 2.853656 -9.545362 -16.025241 -1.346690 8.161373 43.769091 30.162033 0.000000 0.000000 0.000000 7.125000 0.000000 0.000000 41.356607 55.094834 -11.721231
0.594032 17.445464 9.478600 -8.540168 -1.367655 10.802034 0.000000 0.000000 0.000000 -20.974075 -42.858187 25.890115 0.066166 -1.659430 -4.565358 -5.225913 44.113383 -46.143542 0.507175 4.565017 12.671920 0.000000 0.000000 0.000000 27.129028 25.569163 4.788279 -0.006301 -0.514024 1.412400 0.985489 -20.507929 -19.618107 -0.034396 -1.196929 3.290837 5.397338 0.995210 -2.162971 1.598494 1.673436 -10.872645 -1.406700 0.424787 -10.266380 -10.215793 -12.561154 -0.786677 10.593388 -18.136013 13.497812 3.676955 -8.858924 6.119277 0.000000 0.000000 0.000000 -1.469585 13.972796 -7.562072 8.931450 -15.051094 1.182271 18.276088 27.861831 9.999107 0.000000 0.000000 0.000000 -7.125000 0.000000 0.000000 -6.202156 19.493293 -3.799233 0.000000 0.000000 0.000000 1.597529 12.301075 2.619373 -9.518947 -15.983555 -1.339470 8.220889 43.948262 30.117116 0.000000 0.000000 0.000000 7.125000 0.000000 0.000000 41.370193 55.048354 -11.675893
0.592364 17.443431 9.478801 -8.698982 -1.407663 10.783992 0.000000 0.000000 0.000000 -20.779804 -42.789710 25.927312 0.068005 -1.682493 -4.628932 -5.182453 44.062621 -46.184239 0.521076 4.626327 12.845765 0.000000 0.000000 0.000000 27.347775 25.633072 4.822875 -0.006767 -0.530279 1.457168 0.977559 -20.474870 -19.647281 -0.040012 -1.291323 3.550756 5.524294 0.982378 -2.171368 1.686153 1.667474 -10.883574 -1.382621 0.414803 -10.276396 -10.279150 -12.449840 -0.920884 10.507344 -17.984726 13.778889 3.660901 -8.783245 6.211632 0.000000 0.000000 0.000000 -1.542373 13.961848 -7.137275 8.888806 -14.983003 1.171184 18.403624 28.085660 10.268580 0.000000 0.000000 0.000000 -7.125000 0.000000 0.000000 -6.112262 19.203523 -3.783097 0.000000 0.000000 0.000000 1.539479 12.302349 2.536503 -9.527603 -15.997291 -1.341810 8.076912 44.130851 30.073392 0.000000 0.000000 0.000000 7.125000 0.000000 0.000000 41.203034 55.042619 -11.609197
0.591005 17.443606 9.480805 -8.712966 -1.394255 10.765133 0.000000 0.000000 0.000000 -20.747892 -42.739662 25.916133 0.068394 -1.686933 -4.641314 -5.249084 44.099537 -46.026977 0.513349 4.592217 12.749116 0.000000 0.000000 0.000000 27.385737 25.613028 4.846794 -0.006898 -0.534543 1.468944 0.981791 -20.496435 -19.640368 -0.038401 -1.265008 3.478323 5.529668 0.970118 -2.196417 1.702789 1.651474 -10.902678 -1.366291 0.406933 -10.284926 -10.318766 -12.335830 -0.994961 10.507341 -17.839817 13.973855 3.673486 -8.708961 6.273224 0.000000 0.000000 0.000000 -1.505635 14.001573 -7.173694 8.900853 -15.002284 1.174314 18.116131 27.958546 10.313103 0.000000 0.000000 0.000000 -7.125000 0.000000 0.000000 -6.316191 19.176520 -3.914703 0.000000 0.000000 0.000000 1.541386 12.269198 2.508142 -9.538531 -16.014549 -1.344809 8.261769 43.889458 30.241077 0.000000 0.000000 0.000000 7.125000 0.000000 0.000000 41.516219 55.136227 -11.824209
0.592663 17.445163 9.483771 -8.610058 -1.283961 10.804351 0.000000 0.000000 0.000000 -20.855907 -42.813216 25.848073 0.066202 -1.660126 -4.567171 -5.136943 43.942780 -46.073586 0.530301 4.666272 12.959181 0.000000 0.000000 0.000000 27.218947 25.456507 4.780024 -0.006134 -0.504545 1.386400 0.981067 -20.473476 -19.597221 -0.035289 -1.212415 3.333392 5.529914 0.942321 -2.284953 1.644343 1.605557 -10.962774 -1.424348 0.379829 -10.302215 -10.280130 -12.277606 -0.942661 10.409347 -17.761190 14.082812 3.648469 -8.675104 6.277459 0.000000 0.000000 0.000000 -1.441060 14.069014 -7.230767 8.930265 -15.049191 1.181949 18.218611 27.971432 9.702953 0.000000 0.000000 0.000000 -7.125000 0.000000 0.000000 -6.243072 19.806077 -3.781205 0.000000 0.000000 0.000000 1.602117 12.263646 2.269196 -9.569933 -16.064051 -1.353476 8.440823 43.800773 30.273697 0.000000 0.000000 0.000000 7.125000 0.000000 0.000000 41.705026 55.126179 -11.882527
